<svg xmlns="http://www.w3.org/2000/svg" version="1.1" xmlns:xlink="http://www.w3.org/1999/xlink" xmlns:svgjs="http://svgjs.dev/svgjs" width="1920" height="1080" preserveAspectRatio="none" viewBox="0 0 1920 1080"><g mask="url(&quot;#SvgjsMask3155&quot;)" fill="none"><rect width="1920" height="1080" x="0" y="0" fill="url(&quot;#SvgjsLinearGradient3156&quot;)"></rect><path d="M -521.4681563316647,685 C -425.47,619.8 -233.47,360.6 -41.46815633166467,359 C 150.53,357.4 246.53,665.2 438.53184366833534,677 C 630.53,688.8 726.53,439.6 918.5318436683353,418 C 1110.53,396.4 1206.53,587.2 1398.5318436683353,569 C 1590.53,550.8 1774.24,323.4 1878.5318436683353,327 C 1982.83,330.6 1911.71,535 1920,587" stroke="rgba(222, 42, 42, 1)" stroke-width="2"></path><path d="M -703.956198306603,398 C -607.96,444.2 -415.96,627.4 -223.95619830660306,629 C -31.96,630.6 64.04,414.4 256.043801693397,406 C 448.04,397.6 544.04,603.8 736.043801693397,587 C 928.04,570.2 1024.04,315.6 1216.043801693397,322 C 1408.04,328.4 1555.25,585.4 1696.043801693397,619 C 1836.84,652.6 1875.21,515.8 1920,490" stroke="rgba(222, 42, 42, 1)" stroke-width="2"></path><path d="M -459.2647800657565,361 C -363.26,417.8 -171.26,618.4 20.735219934243485,645 C 212.74,671.6 308.74,481.8 500.7352199342435,494 C 692.74,506.2 788.74,716.8 980.7352199342434,706 C 1172.74,695.2 1268.74,471 1460.7352199342436,440 C 1652.74,409 1848.88,559.2 1940.7352199342436,551 C 2032.59,542.8 1924.15,429.4 1920,399" stroke="rgba(222, 42, 42, 1)" stroke-width="2"></path><path d="M -264.2539742747098,405 C -168.25,467 23.75,731 215.74602572529022,715 C 407.75,699 503.75,353.2 695.7460257252902,325 C 887.75,296.8 983.75,572.8 1175.74602572529,574 C 1367.75,575.2 1463.75,318.8 1655.74602572529,331 C 1847.75,343.2 2082.9,618.8 2135.74602572529,635 C 2188.6,651.2 1963.15,456.6 1920,412" stroke="rgba(222, 42, 42, 1)" stroke-width="2"></path><path d="M -701.1635851011222,766 C -605.16,688.6 -413.16,411.6 -221.16358510112215,379 C -29.16,346.4 66.84,586.2 258.8364148988778,603 C 450.84,619.8 546.84,450.4 738.8364148988778,463 C 930.84,475.6 1026.84,695.2 1218.8364148988778,666 C 1410.84,636.8 1558.6,327.4 1698.8364148988778,317 C 1839.07,306.6 1875.77,554.6 1920,614" stroke="rgba(222, 42, 42, 1)" stroke-width="2"></path></g><defs><mask id="SvgjsMask3155"><rect width="1920" height="1080" fill="#ffffff"></rect></mask><linearGradient x1="10.94%" y1="119.44%" x2="89.06%" y2="-19.44%" gradientUnits="userSpaceOnUse" id="SvgjsLinearGradient3156"><stop stop-color="rgba(12, 11, 47, 1)" offset="0"></stop><stop stop-color="rgba(3, 3, 6, 1)" offset="1"></stop></linearGradient></defs></svg>